<mxfile host="app.diagrams.net" modified="2023-09-14T19:02:07.979Z" agent="Mozilla/5.0 (Windows NT 10.0; Win64; x64; rv:109.0) Gecko/20100101 Firefox/117.0" version="21.7.5" etag="vXxU78Zxv_dnfCf7B2Nd" type="github">
  <diagram name="PÃ¡gina-1" id="3W_ffy-Xjthlt9i75EV4">
    <mxGraphModel>
      <root>
        <mxCell id="0" />
        <mxCell id="1" parent="0" />
      </root>
    </mxGraphModel>
  </diagram>
</mxfile>
